<svg width="65" height="30" viewBox="0 0 65 30" fill="none" xmlns="http://www.w3.org/2000/svg">
<path d="M8.16 29.36C6.66667 29.36 5.36 29.0267 4.24 28.36C3.12 27.6667 2.24 26.6933 1.6 25.44C0.986667 24.1867 0.68 22.7067 0.68 21C0.68 18.84 1.06667 16.8667 1.84 15.08C2.61333 13.2667 3.72 11.8267 5.16 10.76C6.62667 9.69333 8.4 9.16 10.48 9.16C12.0267 9.16 13.4 9.54667 14.6 10.32C15.8 11.0933 16.6267 12.2533 17.08 13.8H16.8L18.6 2.24C18.7067 1.62667 18.9333 1.18667 19.28 0.919999C19.6267 0.653333 20.0933 0.52 20.68 0.52C21.2667 0.52 21.68 0.693332 21.92 1.04C22.1867 1.38666 22.28 1.90667 22.2 2.6L18.24 27.44C18.16 28.0267 17.9467 28.48 17.6 28.8C17.2533 29.12 16.7733 29.28 16.16 29.28C15.6 29.28 15.1867 29.0933 14.92 28.72C14.68 28.32 14.6267 27.7867 14.76 27.12L15.2 24.28L15.4 24.96C14.7067 26.32 13.7333 27.4 12.48 28.2C11.2533 28.9733 9.81333 29.36 8.16 29.36ZM9.4 26.48C10.8133 26.48 12.0133 26.08 13 25.28C13.9867 24.48 14.7333 23.4133 15.24 22.08C15.7467 20.7467 16 19.2667 16 17.64C16 15.8267 15.5467 14.44 14.64 13.48C13.76 12.52 12.5333 12.04 10.96 12.04C9.54667 12.04 8.34667 12.44 7.36 13.24C6.4 14.0133 5.65333 15.0667 5.12 16.4C4.61333 17.7333 4.36 19.2267 4.36 20.88C4.36 22.6933 4.8 24.08 5.68 25.04C6.58667 26 7.82667 26.48 9.4 26.48ZM33.3566 29.36C31.4899 29.36 29.8632 29.0133 28.4766 28.32C27.1166 27.6 26.0632 26.6 25.3166 25.32C24.5699 24.0133 24.1966 22.48 24.1966 20.72C24.1966 18.5867 24.6232 16.6533 25.4766 14.92C26.3299 13.16 27.5432 11.76 29.1166 10.72C30.6899 9.68 32.5432 9.16 34.6766 9.16C36.2232 9.16 37.5166 9.44 38.5566 10C39.5966 10.5333 40.4232 11.2667 41.0366 12.2C41.6499 13.1067 42.0499 14.1467 42.2366 15.32C42.4499 16.4667 42.4766 17.6533 42.3166 18.88C42.2632 19.36 42.1432 19.68 41.9566 19.84C41.7699 20 41.4766 20.08 41.0766 20.08H27.0366L27.3566 17.76H40.0766L39.3566 18.32C39.5432 17.0933 39.5032 16 39.2366 15.04C38.9699 14.0533 38.4632 13.2667 37.7166 12.68C36.9699 12.0933 35.9432 11.8 34.6366 11.8C33.2499 11.8 32.0899 12.12 31.1566 12.76C30.2232 13.3733 29.4899 14.16 28.9566 15.12C28.4499 16.08 28.1166 17.1067 27.9566 18.2L27.7566 19.2C27.4099 21.4133 27.7566 23.1867 28.7966 24.52C29.8366 25.8267 31.4366 26.48 33.5966 26.48C34.5299 26.48 35.4366 26.3733 36.3166 26.16C37.1966 25.9467 38.0366 25.5867 38.8366 25.08C39.2099 24.8133 39.5432 24.6933 39.8366 24.72C40.1566 24.7467 40.4099 24.8533 40.5966 25.04C40.7832 25.2267 40.9032 25.4667 40.9566 25.76C41.0099 26.0267 40.9699 26.32 40.8366 26.64C40.7032 26.9333 40.4632 27.2 40.1166 27.44C39.2099 28.08 38.1299 28.56 36.8766 28.88C35.6499 29.2 34.4766 29.36 33.3566 29.36ZM52.4503 29.28C51.8636 29.28 51.397 29.1333 51.0503 28.84C50.7036 28.52 50.437 28.0667 50.2503 27.48L46.0103 11.8C45.877 11.2933 45.8503 10.8533 45.9303 10.48C46.037 10.1067 46.237 9.81333 46.5303 9.6C46.8236 9.36 47.2103 9.24 47.6903 9.24C48.197 9.24 48.5836 9.36 48.8503 9.6C49.1436 9.84 49.357 10.28 49.4903 10.92L53.2503 26.16H52.1703L61.0903 10.52C61.3836 10.04 61.677 9.70667 61.9703 9.52C62.2636 9.33333 62.637 9.24 63.0903 9.24C63.5703 9.24 63.9436 9.34667 64.2103 9.56C64.477 9.77333 64.6236 10.0667 64.6503 10.44C64.677 10.7867 64.557 11.1867 64.2903 11.64L54.7303 27.84C54.437 28.3467 54.1036 28.72 53.7303 28.96C53.3836 29.1733 52.957 29.28 52.4503 29.28Z" fill="#283618"/>
</svg>
