<svg width="225" height="30" viewBox="0 0 225 30" fill="none" xmlns="http://www.w3.org/2000/svg">
<path d="M6.20068 0.442902H23.0314V29.6752H6.20068V0.442902Z" fill="#283618"/>
<path d="M34.9901 15.059C34.9901 23.1313 30.4393 29.6752 22.367 29.6752C14.2948 29.6752 6.86505 23.1313 6.86505 15.059C6.86505 6.98677 14.7377 0.442902 22.8099 0.442902C30.8822 0.442902 34.9901 6.98677 34.9901 15.059Z" fill="#283618"/>
<rect width="35.876" height="15.0591" fill="#606C38" fill-opacity="0.7"/>
<rect x="38.0903" y="9.74408" width="29.2323" height="19.9311" fill="#283618"/>
<rect x="38.0903" width="29.2323" height="19.9311" fill="#606C38" fill-opacity="0.7"/>
<path d="M69.9805 0.442902H98.3269L84.1537 29.6752L69.9805 0.442902Z" fill="#606C38" fill-opacity="0.7"/>
<path d="M100.984 0.442902H117.815V29.6752H100.984V0.442902Z" fill="#283618"/>
<path d="M129.774 15.059C129.774 23.1313 125.223 29.6752 117.15 29.6752C109.078 29.6752 101.649 23.1313 101.649 15.059C101.649 6.98677 109.521 0.442902 117.593 0.442902C125.666 0.442902 129.774 6.98677 129.774 15.059Z" fill="#283618"/>
<mask id="mask0_428_41" style="mask-type:alpha" maskUnits="userSpaceOnUse" x="132" y="0" width="30" height="30">
<circle cx="147.047" cy="15.059" r="14.6161" fill="#C4B1AB" fill-opacity="0.7"/>
</mask>
<g mask="url(#mask0_428_41)">
<rect x="129.331" y="0.442902" width="41.1909" height="30.1181" fill="#606C38" fill-opacity="0.7"/>
<rect x="133.76" y="28.119" width="34.9902" height="18.6024" transform="rotate(-44.6166 133.76 28.119)" fill="#283618"/>
</g>
<path fill-rule="evenodd" clip-rule="evenodd" d="M189.308 4.7596C186.66 2.09361 182.991 0.442902 178.937 0.442902C170.865 0.442902 164.321 6.98677 164.321 15.059C164.321 23.1313 170.865 29.6752 178.937 29.6752C183.18 29.6752 187.001 27.867 189.671 24.9791L179.38 15.0569L189.308 4.7596Z" fill="#283618"/>
<rect x="178.937" y="15.0591" width="14.6161" height="14.6161" fill="#606C38" fill-opacity="0.7"/>
<path d="M217.186 12.8445H196.21V29.6752H217.186C221.501 29.6752 225 25.9075 225 21.2598C225 16.6122 221.501 12.8445 217.186 12.8445Z" fill="#283618"/>
<path d="M204.025 16.8307H225V1.14441e-05H204.025C199.709 1.14441e-05 196.211 3.76769 196.211 8.41537C196.211 13.063 199.709 16.8307 204.025 16.8307Z" fill="#606C38" fill-opacity="0.7"/>
</svg>
